<svg width="20" height="20" viewBox="0 0 20 20" fill="none" xmlns="http://www.w3.org/2000/svg">
<g id="akar-icons:check-box-fill">
<g id="Group">
<path id="Vector" fill-rule="evenodd" clip-rule="evenodd" d="M5.83334 1.66669C4.72827 1.66669 3.66846 2.10567 2.88706 2.88708C2.10566 3.66848 1.66667 4.72829 1.66667 5.83335V14.1667C1.66667 15.2718 2.10566 16.3316 2.88706 17.113C3.66846 17.8944 4.72827 18.3334 5.83334 18.3334H14.1667C15.2717 18.3334 16.3315 17.8944 17.113 17.113C17.8944 16.3316 18.3333 15.2718 18.3333 14.1667V5.83335C18.3333 4.72829 17.8944 3.66848 17.113 2.88708C16.3315 2.10567 15.2717 1.66669 14.1667 1.66669H5.83334ZM13.1083 8.90335C13.1832 8.82347 13.2416 8.72962 13.2802 8.62717C13.3187 8.52471 13.3368 8.41567 13.3332 8.30625C13.3297 8.19683 13.3046 8.08918 13.2594 7.98946C13.2143 7.88973 13.1499 7.79987 13.07 7.72502C12.9901 7.65017 12.8963 7.59178 12.7938 7.5532C12.6914 7.51461 12.5823 7.49659 12.4729 7.50015C12.3635 7.50371 12.2558 7.52878 12.1561 7.57394C12.0564 7.61911 11.9665 7.68347 11.8917 7.76335L9.32251 10.505L8.05334 9.37752C7.88705 9.23929 7.67355 9.1711 7.45792 9.18737C7.2423 9.20364 7.04144 9.30309 6.89777 9.4647C6.75411 9.62632 6.6789 9.83746 6.68802 10.0535C6.69715 10.2696 6.7899 10.4736 6.94667 10.6225L8.82167 12.2892C8.98391 12.4333 9.19597 12.5084 9.41275 12.4986C9.62953 12.4888 9.83394 12.3949 9.98251 12.2367L13.1075 8.90335H13.1083Z" fill="#1F4590"/>
</g>
</g>
</svg>
